# xmcd
#
# Track frame offsets:
#	150
#	20480
#	37797
#	56695
#	69026
#	82523
#	99781
#	117211
#	138571
#	154522
#	180984
#	205892
#	221013
#	237137
#
# Disc length: 3401 seconds
#
# Revision: 1
# Processed by: cddbd v1.5.2PL0 Copyright (c) Steve Scherf et al.
# Submitted via: audiograbber 1.83.01
#
DISCID=a10d470e
DTITLE=Zé Geraldo - Cidadão: 30 e poucos anos
DYEAR=2011
DGENRE=Folk-Rock
TTITLE0=Reciclagem
TTITLE1=De Asa Caída
TTITLE2=Maria Bonita
TTITLE3=Vaqueiros Urbanos (com Landau)
TTITLE4=Luz Ainda Que Tardia
TTITLE5=Tão Bonita (com Xangai)
TTITLE6=Cidadão
TTITLE7=Um Simples Olharzinho Seu (com Nô Stopa)
TTITLE8=Nega (com Nô Stopa)
TTITLE9=Galho Seco
TTITLE10=Aprendendo a Viver
TTITLE11=Cachorro Urubu
TTITLE12=Pelas Chaves de São Pedro (com Geraldo Azevedo)
TTITLE13=Senhorita
EXTD=Gravado ao vivo no Auditório Ibirapuera (SP), em 12 de setembro de 2010
EXTT0=
EXTT1=
EXTT2=
EXTT3=
EXTT4=
EXTT5=
EXTT6=
EXTT7=
EXTT8=
EXTT9=
EXTT10=
EXTT11=
EXTT12=
EXTT13=
PLAYORDER=
